<?xml version="1.0" encoding="UTF-8"?>
<svg id="Capa_2" data-name="Capa 2" xmlns="http://www.w3.org/2000/svg" viewBox="0 0 151.95 119.58">
  <defs>
    <style>
      .cls-1 {
        fill: #d4f852;
      }

      .cls-2 {
        fill: #8db207;
      }
    </style>
  </defs>
  <g id="Capa_1-2" data-name="Capa 1">
    <g>
      <path class="cls-1" d="M108.14,112.57c-1.48-.16-3.56-.67-3.67-1.38-.03-.2.14-.71.3-.84,1.6-1.23,3.38-2.31,5.23-3.15l4.96-2.27c.8.99,1.79,1.39,3.01,1.48,3.98.29,8.02-.59,11.63-2.3,1.23-.59,2.01-1.52,2.35-2.84l6.6.31c2.06.1,5.81.34,6.46,1.3.45.67-1.47,2.19-2.86,2.91-3.21,1.66-6.51,2.9-9.99,3.94l-8.29,2.05c-5.2,1.02-10.37,1.37-15.73.79Z"/>
      <path class="cls-1" d="M43.19,107.88c1.36.63,3.98,2.23,3.86,3.16-.03.23-.4.52-.71.64-2.4.89-4.81,1.07-7.44,1.02-8-.15-15.87-1.58-23.4-4.26-2.61-.93-4.95-1.98-7.25-3.45-.69-.44-1.59-1.28-1.18-2.18.86-.51,2.2-.82,3.27-.89l9.45-.64c.22,1.07.74,1.88,1.59,2.46,3.37,2.26,8.91,3.3,12.95,2.45.89-.19,1.57-.67,2.18-1.38l6.68,3.07Z"/>
      <path class="cls-1" d="M32.99,103.09c-2.71.78-6.89.16-8.57-1.94.28-.71.77-1.28,1.41-1.68,2.16.99,4.2,1.33,6.64,1.22l.52,2.4Z"/>
      <g>
        <path class="cls-1" d="M41.48,82.13c-1.3,5.46-2.32,10.75-3.15,16.21-.05.3-.07.83,0,1.05.08.25.54.49.86.63,4.95,2.06,12.99,5.4,14.32,10.61.62,2.43-.27,4.83-2.27,6.29-3.66,2.67-9.78,2.84-14.4,2.49-9.83-.75-22-2.95-30.86-7.15-3.64-1.73-6.24-4.16-5.96-8.37.32-4.8,5.21-6.3,9.61-7.08,3.4-.6,6.73-.89,10.17-1.21.88-.08,1.59-.55,1.8-1.48l2.05-8.93c.76-3.34,1.35-6.6,1.7-9.99.16-1.53-.4-2.9-1.51-3.86l-4.91-4.22c-3.29-2.83-5.93-6.2-8.04-10-2-3.59-3.09-7.41-3.17-11.54-.29-13.63,7.6-30.45,15.05-41.75C25.43-.22,29.55-.17,34.13.47c7.3,1.02,14.4,2.44,21.55,4.23,4.67,1.16,9.09,2.51,13.57,4.16,2.08.77,3.99,1.65,5.94,2.66,5.28-2.67,11.27-4.57,17.01-6.1,8.04-2.14,16.04-3.87,24.27-5.1,5.12-.76,9.19-.39,12.03,4.06,4.03,6.3,7.51,12.87,10.43,19.79,2.25,5.34,3.91,10.73,4.92,16.41,1.29,7.23.26,13.55-3.71,19.7-2.38,3.69-5.32,6.79-8.79,9.44l-3.56,2.71c-1.04.8-1.86,2.85-1.63,4.29.97,5.89,2.47,11.51,4.04,17.21.3,1.09,1.01,1.6,2.13,1.72l10.37,1.13c2.04.22,3.95.92,5.74,1.8,2.54,1.26,3.88,3.79,3.37,6.56-.33,1.81-1.21,3.3-2.59,4.51-3.07,2.7-7.97,4.47-12.04,5.7-8.03,2.44-16.23,3.88-24.63,4.21-4.26.17-10.62-.28-13.39-3.32-1.99-2.18-1.89-5.42-.11-7.75,3.07-4,8.81-6.42,13.43-8.55.62-.29,1.11-.78.92-1.55l-4.02-16.13c-.57-2.31-2.07-4.76-4.17-5.87-3.33-.93-6.56-1.5-9.77-2.7-3.81-1.42-7.33-3.14-10.57-5.62-4.58-3.5-8.11-8.09-10.34-13.29-2.91,8.28-8.44,13.85-16.14,17.54-3.94,1.82-7.93,3.03-12.2,3.81-.53.1-1.18.31-1.56.65-1.63,1.42-2.66,3.16-3.19,5.36ZM131.92,33.59c-2.02-.51-3.96-.84-6.01-1.01l-4.1-.35-3.7-.15c-3.66-.15-7.27-.18-10.93,0l-3.31.16-4.45.36c-3.86.31-7.58.94-11.33,1.87l-3.55,1.14c-.46.15-1.02.54-1.34.89l-.07,3.3c-.49-.71-.75-1.36-.94-2.24-1.32-5.91-2.04-11.85-2.16-18.01,6.54.03,12.84-.7,19.18-2.12,8.2-1.71,16.41-4.07,23.86-7.98,5.02,8.61,8.92,17.7,11.63,27.25,2,7.06,1.79,13.71-2.06,20.03-2.7,4.43-6.3,8.15-10.67,10.98-3.48,2.26-7.64,3.47-11.8,2.99s-7.66-1.78-11.33-3.31c-10.96-4.57-18.59-13.59-22.18-24.78l-1.44,5.6c4.38,13.53,15.65,22.34,29.61,24.5,1.24.19,2.06.63,2.9,1.45,2.15,2.1,3.78,4.52,4.57,7.49l3.81,14.24c.74,2.78.21,5.59-2.47,6.69-3.87,1.59-9.87,4.38-12.2,7.57-1.23,1.68-.66,3.91,1.22,4.89s3.86,1.27,6.02,1.32c10.91.25,21.76-1.63,31.97-5.49,2.89-1.09,7.25-3.26,8.19-5.94.55-1.58-.09-3.06-1.56-3.79s-3.14-1.3-4.88-1.45l-9.65-.85c-3.2-.28-5.13-2.12-6-5.22-1.39-4.95-2.41-9.86-3.5-14.9-.61-2.85-.1-5.7,1.83-7.92.99-1.15,2.14-2.06,3.34-3.02,3.57-2.86,6.63-6.17,8.94-10.12,4.46-7.62,3.71-15.34,1.28-23.57-2.9-9.83-8.53-20.74-14.14-29.35-.7-1.07-1.68-1.66-3-1.7-1.73-.05-3.4.09-5.19.37-8.92,1.39-17.63,3.32-26.32,5.8-3.47.99-12.08,3.82-13.84,5.79-.62.7-.57,1.69-.85,2.59-.15-1.75-.87-2.92-2.33-3.66-3.34-1.7-6.75-2.97-10.36-4.08-5.94-1.83-11.81-3.2-17.9-4.44-4.21-.86-8.26-1.59-12.52-2.08-2.03-.24-4.77-.33-5.75,1.2-4.21,6.54-7.77,13.36-10.66,20.6-2.54,6.35-4.44,13.62-4.18,20.45.36,9.06,7.3,16.81,13.92,22.54,1.22,1.06,2.18,2.19,2.63,3.77.53,1.87.55,3.73.17,5.7l-3.06,15.5c-.44,2.2-1.62,4.14-3.65,5.15-1.08.54-2.41.62-3.62.73l-6.47.56c-2.63.23-7.32,1.12-8.27,3.23-1.31,2.9,1.88,5.36,4.68,6.73,8.55,4.18,20.96,6.39,30.5,6.8l5.82-.09c1.84-.03,3.64-.67,5.13-1.68,1.27-.87,1.71-2.37,1.15-3.79-1.28-3.26-7.8-6.26-11.36-7.71-.9-.37-2.02-.75-2.64-1.48-1.2-1.41-1.34-3.42-1.04-5.22.82-4.96,1.76-9.71,2.98-14.57.8-3.16,2.47-5.91,4.96-7.94.72-.58,1.55-.89,2.44-1.03,3.62-.57,7.02-1.52,10.35-3.05,5.85-2.69,10.96-7.09,13.68-12.99,1.4-3.04,2.37-6.17,2.86-9.5l1.54-10.7c.62-4.27.99-8.46,1.16-12.78.03-.73.04-1.32.22-1.95l.2,1.87c.76,5.56,1.75,10.97,3.17,16.4,2.53,9.7,7.41,17.58,16.07,22.84,3.82,2.32,7.93,3.87,12.27,4.9,5.02,1.19,9.92.29,14.18-2.63,3.59-2.45,6.63-5.55,8.95-9.25,4.45-7.08,3.84-14.52,1.45-22.34Z"/>
        <path class="cls-2" d="M131.92,33.59c2.4,7.83,3,15.26-1.45,22.34-2.32,3.7-5.36,6.79-8.95,9.25-4.26,2.91-9.16,3.82-14.18,2.63-4.35-1.03-8.45-2.58-12.27-4.9-8.65-5.26-13.53-13.13-16.07-22.84-1.42-5.43-2.41-10.84-3.17-16.4l-.2-1.87c-.18.63-.19,1.21-.22,1.95-.17,4.32-.54,8.51-1.16,12.78l-1.54,10.7c-.48,3.33-1.46,6.47-2.86,9.5-2.71,5.9-7.83,10.31-13.68,12.99-3.33,1.53-6.73,2.48-10.35,3.05-.9.14-1.73.45-2.44,1.03-2.5,2.02-4.17,4.78-4.96,7.94-1.23,4.86-2.17,9.61-2.98,14.57-.3,1.8-.16,3.8,1.04,5.22.62.73,1.74,1.11,2.64,1.48,3.56,1.45,10.08,4.45,11.36,7.71.56,1.42.12,2.93-1.15,3.79-1.48,1.01-3.29,1.66-5.13,1.68l-5.82.09c-9.54-.41-21.95-2.62-30.5-6.8-2.79-1.37-5.99-3.83-4.68-6.73.95-2.11,5.64-3,8.27-3.23l6.47-.56c1.21-.1,2.54-.19,3.62-.73,2.03-1.01,3.22-2.95,3.65-5.15l3.06-15.5c.39-1.97.37-3.83-.17-5.7-.45-1.58-1.41-2.72-2.63-3.77-6.61-5.73-13.56-13.48-13.92-22.54-.27-6.84,1.63-14.1,4.18-20.45,2.9-7.23,6.45-14.06,10.66-20.6.98-1.53,3.73-1.43,5.75-1.2,4.26.5,8.31,1.22,12.52,2.08,6.09,1.24,11.97,2.61,17.9,4.44,3.62,1.11,7.02,2.38,10.36,4.08,1.47.74,2.19,1.92,2.33,3.66.29-.89.23-1.89.85-2.59,1.77-1.98,10.38-4.8,13.84-5.79,8.69-2.48,17.4-4.41,26.32-5.8,1.79-.28,3.46-.42,5.19-.37,1.33.04,2.3.63,3,1.7,5.61,8.6,11.24,19.51,14.14,29.35,2.43,8.24,3.19,15.96-1.28,23.57-2.31,3.95-5.37,7.27-8.94,10.12-1.2.96-2.35,1.87-3.34,3.02-1.92,2.22-2.44,5.07-1.83,7.92,1.08,5.04,2.11,9.95,3.5,14.9.87,3.1,2.8,4.94,6,5.22l9.65.85c1.74.15,3.36.69,4.88,1.45s2.11,2.21,1.56,3.79c-.94,2.67-5.3,4.84-8.19,5.94-10.21,3.86-21.06,5.74-31.97,5.49-2.16-.05-4.2-.37-6.02-1.32s-2.44-3.21-1.22-4.89c2.33-3.18,8.33-5.98,12.2-7.57,2.67-1.1,3.21-3.92,2.47-6.69l-3.81-14.24c-.79-2.97-2.42-5.39-4.57-7.49-.84-.82-1.66-1.26-2.9-1.45-13.96-2.16-25.23-10.97-29.61-24.5l1.44-5.6c3.58,11.18,11.22,20.2,22.18,24.78,3.67,1.53,7.32,2.85,11.33,3.31s8.32-.73,11.8-2.99c4.36-2.84,7.97-6.55,10.67-10.98,3.85-6.32,4.06-12.97,2.06-20.03-2.7-9.55-6.61-18.64-11.63-27.25-7.45,3.91-15.66,6.27-23.86,7.98-6.33,1.43-12.63,2.16-19.18,2.12.12,6.16.84,12.1,2.16,18.01.2.88.46,1.53.94,2.24l.07-3.3c.31-.35.87-.74,1.34-.89l3.55-1.14c3.76-.93,7.47-1.56,11.33-1.87l4.45-.36,3.31-.16c3.66-.18,7.27-.15,10.93,0l3.7.15,4.1.35c2.05.17,4,.5,6.01,1.01ZM71.16,16.56c-.44-.56-.78-.85-1.22-.97l-5.71-1.53-10.83-2.58-19.8-4.79c-1.82-.44-4.85-1.06-4.3-.29l.35.48c2.05,1.37,4.24,2.35,6.58,3.21,2.8.91,5.47,1.84,8.35,2.49l11.93,2.7c3.87.88,7.69,1.38,11.65,1.58,1.06.05,1.98-.04,3-.3ZM80.56,16.68c2.73.1,5.22-.03,7.94-.49,7.06-1.18,13.93-2.7,20.82-4.63,2.65-.74,5.12-1.51,7.62-2.54,1.66-.69,3.23-1.48,4.57-2.9-1.68-.29-3.1.19-4.69.57l-31.22,7.41-4.74,1.33c-.44.12-.87.5-1.2.84.29.18.7.4.91.41ZM63.04,58.86c3.69-4.72,5.14-10.06,6.15-15.91.74-5.08,1.43-10.05,1.48-15.18l.08-7.98c-6.87-.14-13.5-.92-20.17-2.39-7.57-1.67-15.89-4-22.69-7.83l-2.43,4.5c-3.24,6-5.81,12.21-7.67,18.79-2.35,8.32-2.55,16.56,2.4,23.87,3.45,5.1,8.43,10.09,14.04,12.61,2.66,1.2,5.41,1.61,8.25.98,8.07-1.81,15.37-4.82,20.56-11.46ZM37.65,75.57c.59-.9,1.04-1.71,1.41-2.68-2.81-.39-5.09-.84-7.6-2.08l.28,2.77c1.81,1.1,3.63,1.84,5.91,1.99ZM120.12,73.9c.22-1.02.34-1.78.36-2.77-2.85,1.26-5.54,1.64-8.61,1.98l1.44,2.69c2.54-.15,4.61-.83,6.81-1.9ZM31.66,97.3l1.6-8.02c.74-3.72,1.58-7.28,2.61-10.94-1.1-.78-2.36-1.09-3.7-1.11l-3.87,18.28c-.08.4-.07.88.01,1.26,1.11.39,2.17.68,3.34.53ZM120.06,97.48c1.3.1,2.37.07,3.41-.4.47-.21.24-.92.13-1.34-1.55-6.08-2.78-12.07-4.02-18.32-1.92,0-4.55.54-4.19,1.91l2.57,9.87,2.1,8.27ZM118.68,103.16c3.2.66,6.31.24,8.84-1.75.15-.84-.69-1.77-1.49-2-2.2.96-4.34,1.5-6.77,1.37l-.59,2.37ZM32.99,103.09l-.52-2.4c-2.44.11-4.47-.23-6.64-1.22-.64.4-1.14.97-1.41,1.68,1.68,2.1,5.85,2.72,8.57,1.94ZM43.19,107.88l-6.68-3.07c-.61.72-1.28,1.2-2.18,1.38-4.04.84-9.58-.19-12.95-2.45-.85-.57-1.38-1.38-1.59-2.46l-9.45.64c-1.07.07-2.42.38-3.27.89-.41.9.49,1.73,1.18,2.18,2.3,1.47,4.64,2.52,7.25,3.45,7.52,2.68,15.4,4.11,23.4,4.26,2.63.05,5.05-.13,7.44-1.02.31-.12.67-.4.71-.64.13-.93-2.49-2.53-3.86-3.16ZM108.14,112.57c5.36.59,10.53.23,15.73-.79l8.29-2.05c3.47-1.04,6.77-2.28,9.99-3.94,1.4-.72,3.31-2.24,2.86-2.91-.65-.96-4.4-1.2-6.46-1.3l-6.6-.31c-.34,1.31-1.11,2.25-2.35,2.84-3.6,1.71-7.65,2.59-11.63,2.3-1.23-.09-2.21-.49-3.01-1.48l-4.96,2.27c-1.85.85-3.63,1.93-5.23,3.15-.17.13-.33.64-.3.84.11.71,2.19,1.22,3.67,1.38Z"/>
        <path class="cls-1" d="M63.04,58.86c-5.19,6.63-12.48,9.65-20.56,11.46-2.84.64-5.59.22-8.25-.98-5.61-2.52-10.58-7.5-14.04-12.61-4.95-7.31-4.75-15.56-2.4-23.87,1.86-6.58,4.42-12.79,7.67-18.79l2.43-4.5c6.8,3.83,15.12,6.16,22.69,7.83,6.67,1.47,13.3,2.25,20.17,2.39l-.08,7.98c-.05,5.14-.74,10.1-1.48,15.18-1.02,5.85-2.47,11.2-6.15,15.91ZM53.46,63.98c3.97-2.08,7.06-5.02,9.4-8.75,3.49-5.54,4.41-12.23,5.33-18.7-1.91-.86-3.67-1.42-5.65-1.87-5.72-1.29-11.44-1.97-17.28-2.26l-3.35-.17c-2.83-.14-5.64-.29-8.5-.05l-2.17.19c-3.84.33-7.71.27-11.56,1.32-1.84,6.64-2.23,12.99.92,19.22,2.8,5.54,7.19,10.22,12.56,13.33,3.17,1.84,6.7,2.27,10.22,1.49s6.79-2.05,10.08-3.77Z"/>
        <path class="cls-1" d="M80.56,16.68c-.21,0-.61-.23-.91-.41.33-.33.76-.71,1.2-.84l4.74-1.33,31.22-7.41c1.59-.38,3.01-.86,4.69-.57-1.34,1.42-2.91,2.21-4.57,2.9-2.5,1.04-4.97,1.8-7.62,2.54-6.88,1.93-13.76,3.44-20.82,4.63-2.72.46-5.2.6-7.94.49Z"/>
        <path class="cls-1" d="M71.16,16.56c-1.03.25-1.95.35-3,.3-3.96-.2-7.78-.7-11.65-1.58l-11.93-2.7c-2.88-.65-5.55-1.58-8.35-2.49-2.34-.86-4.53-1.84-6.58-3.21l-.35-.48c-.56-.76,2.48-.15,4.3.29l19.8,4.79,10.83,2.58,5.71,1.53c.44.12.78.42,1.22.97Z"/>
        <path class="cls-1" d="M120.06,97.48l-2.1-8.27-2.57-9.87c-.36-1.38,2.27-1.91,4.19-1.91,1.24,6.24,2.47,12.24,4.02,18.32.11.42.33,1.13-.13,1.34-1.04.47-2.11.49-3.41.4Z"/>
        <path class="cls-1" d="M31.66,97.3c-1.17.15-2.23-.14-3.34-.53-.08-.38-.1-.86-.01-1.26l3.87-18.28c1.33.03,2.6.33,3.7,1.11-1.04,3.66-1.87,7.22-2.61,10.94l-1.6,8.02Z"/>
        <path class="cls-1" d="M118.68,103.16l.59-2.37c2.43.13,4.57-.41,6.77-1.37.8.23,1.64,1.16,1.49,2-2.53,1.99-5.64,2.41-8.84,1.75Z"/>
        <path class="cls-1" d="M120.12,73.9c-2.2,1.07-4.27,1.75-6.81,1.9l-1.44-2.69c3.06-.34,5.75-.72,8.61-1.98-.02.99-.14,1.75-.36,2.77Z"/>
        <path class="cls-1" d="M37.65,75.57c-2.27-.15-4.09-.9-5.91-1.99l-.28-2.77c2.51,1.24,4.79,1.69,7.6,2.08-.37.97-.82,1.79-1.41,2.68Z"/>
        <path class="cls-2" d="M53.46,63.98c-3.29,1.72-6.52,2.98-10.08,3.77s-7.04.35-10.22-1.49c-5.37-3.12-9.76-7.79-12.56-13.33-3.15-6.23-2.76-12.58-.92-19.22,3.86-1.04,7.73-.99,11.56-1.32l2.17-.19c2.86-.25,5.67-.09,8.5.05l3.35.17c5.84.29,11.56.96,17.28,2.26,1.98.45,3.73,1,5.65,1.87-.92,6.47-1.84,13.16-5.33,18.7-2.34,3.72-5.44,6.67-9.4,8.75Z"/>
      </g>
    </g>
  </g>
</svg>